<svg xmlns="http://www.w3.org/2000/svg" width="32" height="32" viewBox="0 0 100 50" fill="none">
<path d="M62.283 30.6788C59.219 26.5282 55.857 22.6061 52.2235 18.9436C48.6449 15.2349 44.7976 11.7953 40.713 8.65257C39.2709 7.57357 37.5294 6.96873 35.7289 6.9215C33.9285 6.87427 32.1577 7.38699 30.661 8.38889C26.3843 11.3137 22.3865 14.6266 18.7184 18.2856C14.982 21.8783 11.5815 25.8046 8.55897 30.0156C7.52105 31.493 6.96847 33.2567 6.97783 35.0622C6.98719 36.8677 7.55804 38.6256 8.61123 40.0922C11.6715 44.2391 15.0322 48.1558 18.6662 51.8104C22.2434 55.5274 26.0924 58.9729 30.1812 62.1184C31.6269 63.2138 33.3787 63.8301 35.1918 63.8811C37.0048 63.932 38.7885 63.415 40.2933 62.4024C44.5628 59.4681 48.5597 56.1558 52.2359 52.5056V52.5056C55.9653 48.9072 59.362 44.9791 62.3846 40.7694C63.4185 39.2856 63.9643 37.5164 63.9461 35.7079C63.928 33.8994 63.3466 32.1416 62.283 30.6788V30.6788Z" fill="#F1A352"/>
<path d="M43.6497 24.0864C41.0085 23.6886 38.3418 23.4835 35.6709 23.4729C33.0031 23.4253 30.3354 23.5746 27.6896 23.9194C26.7666 24.0523 25.9076 24.4684 25.2312 25.1103C24.5548 25.7521 24.0942 26.5881 23.9131 27.5028C23.4182 30.1392 23.1674 32.8155 23.1641 35.498C23.1115 38.1811 23.304 40.8633 23.7391 43.5114C23.9 44.4323 24.3433 45.2803 25.0078 45.9378C25.6722 46.5954 26.5247 47.0299 27.4471 47.1812C30.0856 47.5791 32.7498 47.7826 35.4181 47.7902C38.0884 47.8413 40.7589 47.6936 43.4073 47.3483C44.3376 47.2201 45.2045 46.8044 45.8869 46.1592C46.5693 45.5141 47.033 44.6719 47.2132 43.7503C47.702 41.1131 47.9527 38.4372 47.9622 35.7551V35.7551C48.0101 33.0725 47.8156 30.391 47.381 27.7433C47.2163 26.8215 46.7684 25.974 46.0997 25.3186C45.4309 24.6632 44.5746 24.2325 43.6497 24.0864V24.0864Z" fill="#6A4926"/>
<path d="M78.9314 45.3578V25.5059C78.9314 25.0701 79.0762 24.7033 79.3658 24.4057C79.6554 24.108 80.0019 23.9592 80.4053 23.9592H83.3221C83.7255 23.9592 84.0668 24.108 84.3461 24.4057C84.6357 24.7033 84.7805 25.0701 84.7805 25.5059V42.3123H98.2941C98.6975 42.3123 99.0388 42.4611 99.3181 42.7587C99.6077 43.0564 99.7525 43.4125 99.7525 43.8271V45.3259C99.7525 45.7405 99.6077 46.0966 99.3181 46.3943C99.0388 46.6813 98.6975 46.8248 98.2941 46.8248H80.4053C80.0019 46.8248 79.6554 46.6866 79.3658 46.4102C79.0762 46.1232 78.9314 45.7724 78.9314 45.3578Z" fill="#6A4926"/>
<path d="M125.217 44.4649C123.107 46.3677 120.004 47.3191 115.909 47.3191C111.823 47.3191 108.72 46.3677 106.6 44.4649C104.479 42.5515 103.419 39.5272 103.419 35.392C103.419 31.2568 104.479 28.2379 106.6 26.335C108.72 24.4322 111.823 23.4808 115.909 23.4808C120.004 23.4808 123.107 24.4322 125.217 26.335C127.338 28.2379 128.398 31.2568 128.398 35.392C128.398 39.5272 127.338 42.5515 125.217 44.4649ZM120.982 29.6995C119.937 28.4239 118.246 27.7861 115.909 27.7861C113.581 27.7861 111.89 28.4239 110.835 29.6995C109.79 30.9751 109.268 32.878 109.268 35.4079C109.268 37.9273 109.79 39.8248 110.835 41.1004C111.89 42.3654 113.581 42.9979 115.909 42.9979C118.246 42.9979 119.937 42.3654 120.982 41.1004C122.027 39.8248 122.549 37.9273 122.549 35.4079C122.549 32.878 122.027 30.9751 120.982 29.6995Z" fill="#6A4926"/>
<path d="M133.398 45.302V25.4501C133.398 25.0355 133.543 24.6847 133.832 24.3977C134.122 24.1107 134.468 23.9672 134.872 23.9672H152.761C153.164 23.9672 153.505 24.116 153.785 24.4136C154.074 24.7113 154.219 25.0674 154.219 25.482V26.9808C154.219 27.3954 154.074 27.7515 153.785 28.0492C153.505 28.3362 153.164 28.4797 152.761 28.4797H139.247V34.0924H150.247C150.651 34.0924 150.992 34.2413 151.271 34.5389C151.561 34.8366 151.706 35.1874 151.706 35.5913V37.1061C151.706 37.5207 151.561 37.8768 151.271 38.1744C150.992 38.4615 150.651 38.605 150.247 38.605H139.247V45.302C139.247 45.7379 139.102 46.1046 138.813 46.4022C138.533 46.6893 138.192 46.8328 137.789 46.8328H134.872C134.468 46.8328 134.122 46.6893 133.832 46.4022C133.543 46.1046 133.398 45.7379 133.398 45.302Z" fill="#6A4926"/>
<path d="M159.304 26.9808V25.482C159.304 25.0461 159.443 24.6847 159.722 24.3977C160.002 24.1107 160.353 23.9672 160.778 23.9672H180.466C180.89 23.9672 181.242 24.1107 181.521 24.3977C181.8 24.6847 181.94 25.0461 181.94 25.482V26.9808C181.94 27.4167 181.8 27.7781 181.521 28.0651C181.242 28.3415 180.89 28.4797 180.466 28.4797H173.546V45.3658C173.546 45.7804 173.402 46.1312 173.112 46.4182C172.833 46.6946 172.491 46.8328 172.088 46.8328H169.156C168.752 46.8328 168.406 46.6946 168.116 46.4182C167.837 46.1312 167.697 45.7804 167.697 45.3658V28.4797H160.778C160.353 28.4797 160.002 28.3415 159.722 28.0651C159.443 27.7781 159.304 27.4167 159.304 26.9808Z" fill="#6A4926"/>
</svg>